<svg width="16" height="16" viewBox="0 0 16 15.25" xmlns="http://www.w3.org/2000/svg">
    <path d="M13.812 0H2.869C1.661 0 .681.98.681 2.188v2.189h1.094V2.188c0-.604.49-1.094 1.094-1.094h10.943c.604 0 1.094.49 1.094 1.094v10.943c0 .604-.49 1.094-1.094 1.094H2.869c-.604 0-1.094-.49-1.094-1.094v-2.189H.681v2.189c0 1.208.98 2.188 2.188 2.188h10.943c1.208 0 2.188-.98 2.188-2.188V2.188C16 .98 15.02 0 13.812 0zM9.104 11.034a.598.598 0 0 0 0 .8.498.498 0 0 0 .742 0l3.622-3.905a.587.587 0 0 0 .148-.43.585.585 0 0 0-.148-.428L9.846 3.166a.498.498 0 0 0-.742 0 .598.598 0 0 0 0 .8l2.752 2.968H.525c-.29 0-.525.253-.525.566 0 .313.235.566.525.566h11.33l-2.751 2.968z"/>
</svg>