<svg xmlns="http://www.w3.org/2000/svg" xmlns:xlink="http://www.w3.org/1999/xlink" viewBox="0 0 239.36 239.36">
    <path d="M119.36,210.54a91,91,0,1,1,.15,0h-.15m0-12.67a78.42,78.42,0,1,0-55.48-23,78.42,78.42,0,0,0,55.48,23m.32,27.87a105.9,105.9,0,1,1,.09,0h-.09m0-7.92a98.06,98.06,0,1,0-69.38-28.7,98.06,98.06,0,0,0,69.38,28.7m-.16,21.54a119.68,119.68,0,1,1,.17,0h-.17m0-4.75a114.94,114.94,0,1,0-81.38-33.67,114.94,114.94,0,0,0,81.38,33.67m64-106.21c-2.21,2.2-4.49,2.86-12.42,2.86-9.33,0-9.72-.06-9.72-.06H135.84a20.18,20.18,0,1,1-.25-23.73h25.62A43.43,43.43,0,1,0,150.61,150s9-.06,17.38-.06h3.41c5.12,0,5.93,4.1,4.1,6.67l-1.09,1.63a52.63,52.63,0,0,1-10.22,11.49,67.24,67.24,0,1,1,22.54-50.18c0,3-.67,6.39-3.18,8.88"/>
</svg>