<svg xmlns="http://www.w3.org/2000/svg" viewBox="0 0 30 32">
    <path d="M14,5V17.3l-3.3-4a1,1,0,0,0-1.41,0h0a1,1,0,0,0,0,1.41l0,0,4.94,6a1.16,1.16,0,0,0,1.52,0l4.94-6a1,1,0,0,0-1.42-1.43h0L16,17.3V5a1,1,0,0,0-2,0ZM4,0H26a4,4,0,0,1,4,4V24H0V4A4,4,0,0,1,4,0ZM0,28V26H30v2a4,4,0,0,1-4,4H4A4,4,0,0,1,0,28ZM14,5V17.3l-3.3-4a1,1,0,0,0-1.41,0h0a1,1,0,0,0,0,1.41l0,0,4.94,6a1.16,1.16,0,0,0,1.52,0l4.94-6a1,1,0,0,0-1.42-1.43h0L16,17.3V5a1,1,0,0,0-2,0ZM4,0H26a4,4,0,0,1,4,4V24H0V4A4,4,0,0,1,4,0ZM0,28V26H30v2a4,4,0,0,1-4,4H4A4,4,0,0,1,0,28Z"/>
</svg>