<svg xmlns="http://www.w3.org/2000/svg" viewBox="0 0 47.99 48">
    <path d="M20.2,36.68A16.94,16.94,0,0,1,3.11,19.89h0a17.09,17.09,0,0,1,34.17,0A16.94,16.94,0,0,1,20.2,36.68Zm27.35,8.7L35.15,33.19a19.57,19.57,0,0,0,5.24-13.31A20,20,0,0,0,20.27,0H20.2A20,20,0,0,0,0,19.8H0v.08A20,20,0,0,0,20.13,39.75h.07A20.29,20.29,0,0,0,32.91,35.3L45.35,47.55a1.56,1.56,0,0,0,2.2,0,1.51,1.51,0,0,0,0-2.14h0ZM28,18.62H13a1.44,1.44,0,1,0,0,2.88H28a1.44,1.44,0,1,0,0-2.88ZM20.2,36.68A16.94,16.94,0,0,1,3.11,19.89h0a17.09,17.09,0,0,1,34.17,0A16.94,16.94,0,0,1,20.2,36.68Zm27.35,8.7L35.15,33.19a19.57,19.57,0,0,0,5.24-13.31A20,20,0,0,0,20.27,0H20.2A20,20,0,0,0,0,19.8H0v.08A20,20,0,0,0,20.13,39.75h.07A20.29,20.29,0,0,0,32.91,35.3L45.35,47.55a1.56,1.56,0,0,0,2.2,0,1.51,1.51,0,0,0,0-2.14h0ZM28,18.62H13a1.44,1.44,0,1,0,0,2.88H28a1.44,1.44,0,1,0,0-2.88Z"/>
</svg>