<svg xmlns="http://www.w3.org/2000/svg" viewBox="0 0 32 29.95">
    <path d="M16,28.32,2.13,21.92S.91,21.38,0,20.86c0,.77.19,2.19.91,2.57l13.58,6.1a2.89,2.89,0,0,0,3,0l13.58-6.1c.67-.31.92-1.78.92-2.57l-2.13,1.07ZM.91,10.64l13.58,6.1a2.9,2.9,0,0,0,3,0l13.58-6.1a1.87,1.87,0,0,0,0-3L17.51.46a2.69,2.69,0,0,0-3,0L.91,7.63a1.84,1.84,0,0,0,0,3ZM.91,17l13.58,6.1a2.89,2.89,0,0,0,3,0L31.08,17c.67-.31.92-1.78.92-2.57L29.87,15.5,16,21.92,2.13,15.53Q1,15,0,14.47C0,15.24.19,16.66.91,17ZM16,28.32,2.13,21.92S.91,21.38,0,20.86c0,.77.19,2.19.91,2.57l13.58,6.1a2.89,2.89,0,0,0,3,0l13.58-6.1c.67-.31.92-1.78.92-2.57l-2.13,1.06ZM.91,10.64l13.58,6.1a2.9,2.9,0,0,0,3,0l13.58-6.1a1.87,1.87,0,0,0,0-3L17.51.46a2.69,2.69,0,0,0-3,0L.91,7.63a1.84,1.84,0,0,0,0,3ZM.91,17l13.58,6.1a2.89,2.89,0,0,0,3,0L31.08,17c.67-.31.92-1.78.92-2.57L29.87,15.5,16,21.92,2.13,15.53Q1,15,0,14.47C0,15.24.19,16.66.91,17Z"/>
</svg>