<svg xmlns="http://www.w3.org/2000/svg" viewBox="0 0 24 25.73">
    <path d="M19.2,17.73H24v-1.6H19.2Zm3.2-9.6H0v16a1.6,1.6,0,0,0,1.6,1.6H22.4a1.6,1.6,0,0,0,1.6-1.6h0v-4.8H18.4a.8.8,0,0,1-.8-.8v-3.2a.8.8,0,0,1,.8-.8H24V9.73a1.6,1.6,0,0,0-1.6-1.6Zm0-7.2a.82.82,0,0,0-.6-.85,1.54,1.54,0,0,0-1,0L0,6.53H22.4Zm-3.2,16.8H24v-1.6H19.2Zm3.2-9.6H0v16a1.6,1.6,0,0,0,1.6,1.6H22.4a1.6,1.6,0,0,0,1.6-1.6h0v-4.8H18.4a.8.8,0,0,1-.8-.8v-3.2a.8.8,0,0,1,.8-.8H24V9.73a1.6,1.6,0,0,0-1.6-1.6Zm0-7.2a.82.82,0,0,0-.6-.85,1.54,1.54,0,0,0-1,0L0,6.53H22.4Z"/>
</svg>